<svg xmlns="http://www.w3.org/2000/svg" width="1600" height="760" viewBox="0 0 1600 760"><rect width="100%" height="100%" fill="white"/><text x="800.0" y="42" font-size="24" font-weight="700" text-anchor="middle">Processing Time by Error Type</text><text x="400" y="88" font-size="18" text-anchor="middle">Simulated Resolution Latency by Error Type</text><text x="1150" y="88" font-size="18" text-anchor="middle">Actual Processing Time by Error Type</text><line x1="90" y1="170" x2="90" y2="640" stroke="#333"/><line x1="90" y1="640" x2="710" y2="640" stroke="#333"/><text x="38" y="405.0" font-size="16" text-anchor="middle" transform="rotate(-90 38 405.0)">Resolution Time (seconds)</text><line x1="840" y1="170" x2="840" y2="640" stroke="#333"/><line x1="840" y1="640" x2="1460" y2="640" stroke="#333"/><text x="788" y="405.0" font-size="16" text-anchor="middle" transform="rotate(-90 788 405.0)">Wall Clock Time (ms)</text><rect x="114" y="170.00" width="54" height="470.00" fill="#67d3cf" opacity="0.88"/><rect x="864" y="325.67" width="54" height="314.33" fill="#ff8c8c" opacity="0.88"/><text x="141.0" y="162.00" font-size="12" text-anchor="middle">177.4</text><text x="891.0" y="317.67" font-size="12" text-anchor="middle">58.93</text><line x1="891.0" y1="170.00" x2="891.0" y2="481.35" stroke="#222" stroke-width="2"/><line x1="883.0" y1="170.00" x2="899.0" y2="170.00" stroke="#222" stroke-width="2"/><line x1="883.0" y1="481.35" x2="899.0" y2="481.35" stroke="#222" stroke-width="2"/><text x="141.0" y="662" font-size="11" text-anchor="middle">null_key</text><text x="891.0" y="662" font-size="11" text-anchor="middle">null_key</text><rect x="186" y="621.33" width="54" height="18.67" fill="#67d3cf" opacity="0.88"/><rect x="936" y="317.73" width="54" height="322.27" fill="#ff8c8c" opacity="0.88"/><text x="213.0" y="613.33" font-size="12" text-anchor="middle">7.0</text><text x="963.0" y="309.73" font-size="12" text-anchor="middle">60.42</text><line x1="963.0" y1="190.42" x2="963.0" y2="445.03" stroke="#222" stroke-width="2"/><line x1="955.0" y1="190.42" x2="971.0" y2="190.42" stroke="#222" stroke-width="2"/><line x1="955.0" y1="445.03" x2="971.0" y2="445.03" stroke="#222" stroke-width="2"/><text x="213.0" y="662" font-size="11" text-anchor="middle">duplicate_record</text><text x="963.0" y="662" font-size="11" text-anchor="middle">duplicate_record</text><rect x="258" y="612.62" width="54" height="27.38" fill="#67d3cf" opacity="0.88"/><rect x="1008" y="304.15" width="54" height="335.85" fill="#ff8c8c" opacity="0.88"/><text x="285.0" y="604.62" font-size="12" text-anchor="middle">10.3</text><text x="1035.0" y="296.15" font-size="12" text-anchor="middle">62.97</text><line x1="1035.0" y1="175.80" x2="1035.0" y2="432.50" stroke="#222" stroke-width="2"/><line x1="1027.0" y1="175.80" x2="1043.0" y2="175.80" stroke="#222" stroke-width="2"/><line x1="1027.0" y1="432.50" x2="1043.0" y2="432.50" stroke="#222" stroke-width="2"/><text x="285.0" y="662" font-size="11" text-anchor="middle">invalid_payment_value</text><text x="1035.0" y="662" font-size="11" text-anchor="middle">invalid_payment_value</text><rect x="330" y="613.30" width="54" height="26.70" fill="#67d3cf" opacity="0.88"/><rect x="1080" y="349.57" width="54" height="290.43" fill="#ff8c8c" opacity="0.88"/><text x="357.0" y="605.30" font-size="12" text-anchor="middle">10.1</text><text x="1107.0" y="341.57" font-size="12" text-anchor="middle">54.45</text><line x1="1107.0" y1="208.59" x2="1107.0" y2="490.55" stroke="#222" stroke-width="2"/><line x1="1099.0" y1="208.59" x2="1115.0" y2="208.59" stroke="#222" stroke-width="2"/><line x1="1099.0" y1="490.55" x2="1115.0" y2="490.55" stroke="#222" stroke-width="2"/><text x="357.0" y="662" font-size="11" text-anchor="middle">orphan_record</text><text x="1107.0" y="662" font-size="11" text-anchor="middle">orphan_record</text><rect x="402" y="615.78" width="54" height="24.22" fill="#67d3cf" opacity="0.88"/><rect x="1152" y="307.56" width="54" height="332.44" fill="#ff8c8c" opacity="0.88"/><text x="429.0" y="607.78" font-size="12" text-anchor="middle">9.1</text><text x="1179.0" y="299.56" font-size="12" text-anchor="middle">62.33</text><line x1="1179.0" y1="207.32" x2="1179.0" y2="407.81" stroke="#222" stroke-width="2"/><line x1="1171.0" y1="207.32" x2="1187.0" y2="207.32" stroke="#222" stroke-width="2"/><line x1="1171.0" y1="407.81" x2="1187.0" y2="407.81" stroke="#222" stroke-width="2"/><text x="429.0" y="662" font-size="11" text-anchor="middle">invalid_timestamp</text><text x="1179.0" y="662" font-size="11" text-anchor="middle">invalid_timestamp</text><rect x="474" y="624.69" width="54" height="15.31" fill="#67d3cf" opacity="0.88"/><rect x="1224" y="322.30" width="54" height="317.70" fill="#ff8c8c" opacity="0.88"/><text x="501.0" y="616.69" font-size="12" text-anchor="middle">5.8</text><text x="1251.0" y="314.30" font-size="12" text-anchor="middle">59.56</text><line x1="1251.0" y1="232.91" x2="1251.0" y2="411.68" stroke="#222" stroke-width="2"/><line x1="1243.0" y1="232.91" x2="1259.0" y2="232.91" stroke="#222" stroke-width="2"/><line x1="1243.0" y1="411.68" x2="1259.0" y2="411.68" stroke="#222" stroke-width="2"/><text x="501.0" y="662" font-size="11" text-anchor="middle">freight_outlier</text><text x="1251.0" y="662" font-size="11" text-anchor="middle">freight_outlier</text><rect x="546" y="625.86" width="54" height="14.14" fill="#67d3cf" opacity="0.88"/><rect x="1296" y="299.78" width="54" height="340.22" fill="#ff8c8c" opacity="0.88"/><text x="573.0" y="617.86" font-size="12" text-anchor="middle">5.3</text><text x="1323.0" y="291.78" font-size="12" text-anchor="middle">63.78</text><line x1="1323.0" y1="190.46" x2="1323.0" y2="409.11" stroke="#222" stroke-width="2"/><line x1="1315.0" y1="190.46" x2="1331.0" y2="190.46" stroke="#222" stroke-width="2"/><line x1="1315.0" y1="409.11" x2="1331.0" y2="409.11" stroke="#222" stroke-width="2"/><text x="573.0" y="662" font-size="11" text-anchor="middle">unknown_payment_type</text><text x="1323.0" y="662" font-size="11" text-anchor="middle">unknown_payment_type</text><rect x="618" y="602.16" width="54" height="37.84" fill="#67d3cf" opacity="0.88"/><rect x="1368" y="307.20" width="54" height="332.80" fill="#ff8c8c" opacity="0.88"/><text x="645.0" y="594.16" font-size="12" text-anchor="middle">14.3</text><text x="1395.0" y="299.20" font-size="12" text-anchor="middle">62.39</text><line x1="1395.0" y1="190.12" x2="1395.0" y2="424.28" stroke="#222" stroke-width="2"/><line x1="1387.0" y1="190.12" x2="1403.0" y2="190.12" stroke="#222" stroke-width="2"/><line x1="1387.0" y1="424.28" x2="1403.0" y2="424.28" stroke="#222" stroke-width="2"/><text x="645.0" y="662" font-size="11" text-anchor="middle">missing_column</text><text x="1395.0" y="662" font-size="11" text-anchor="middle">missing_column</text></svg>