<svg xmlns="http://www.w3.org/2000/svg" width="1280" height="262" viewBox="0 0 1280 262"><rect width="100%" height="100%" fill="white"/><text x="640.0" y="48" font-size="24" font-weight="700" text-anchor="middle">Error Type Resolution Success</text><text x="242.5" y="88" font-size="14" text-anchor="middle" transform="rotate(-25 242.5 88)">null_key</text><text x="367.5" y="88" font-size="14" text-anchor="middle" transform="rotate(-25 367.5 88)">duplicate_record</text><text x="492.5" y="88" font-size="14" text-anchor="middle" transform="rotate(-25 492.5 88)">missing_column</text><text x="617.5" y="88" font-size="14" text-anchor="middle" transform="rotate(-25 617.5 88)">unknown_payment_type</text><text x="742.5" y="88" font-size="14" text-anchor="middle" transform="rotate(-25 742.5 88)">invalid_payment_value</text><text x="867.5" y="88" font-size="14" text-anchor="middle" transform="rotate(-25 867.5 88)">freight_outlier</text><text x="992.5" y="88" font-size="14" text-anchor="middle" transform="rotate(-25 992.5 88)">orphan_record</text><text x="1117.5" y="88" font-size="14" text-anchor="middle" transform="rotate(-25 1117.5 88)">invalid_timestamp</text><text x="160" y="137.0" font-size="16" text-anchor="end">Success Rate (%)</text><rect x="180" y="100" width="125" height="62" fill="#694c37" opacity="0.88" stroke="#ffffff"/><text x="242.5" y="137.0" font-size="18" text-anchor="middle">1.6</text><rect x="305" y="100" width="125" height="62" fill="#694c37" opacity="0.88" stroke="#ffffff"/><text x="367.5" y="137.0" font-size="18" text-anchor="middle">89.3</text><rect x="430" y="100" width="125" height="62" fill="#694c37" opacity="0.88" stroke="#ffffff"/><text x="492.5" y="137.0" font-size="18" text-anchor="middle">98.4</text><rect x="555" y="100" width="125" height="62" fill="#694c37" opacity="0.88" stroke="#ffffff"/><text x="617.5" y="137.0" font-size="18" text-anchor="middle">95.2</text><rect x="680" y="100" width="125" height="62" fill="#694c37" opacity="0.88" stroke="#ffffff"/><text x="742.5" y="137.0" font-size="18" text-anchor="middle">95.7</text><rect x="805" y="100" width="125" height="62" fill="#694c37" opacity="0.88" stroke="#ffffff"/><text x="867.5" y="137.0" font-size="18" text-anchor="middle">94.8</text><rect x="930" y="100" width="125" height="62" fill="#694c37" opacity="0.88" stroke="#ffffff"/><text x="992.5" y="137.0" font-size="18" text-anchor="middle">94.2</text><rect x="1055" y="100" width="125" height="62" fill="#694c37" opacity="0.88" stroke="#ffffff"/><text x="1117.5" y="137.0" font-size="18" text-anchor="middle">96.1</text></svg>