<svg xmlns="http://www.w3.org/2000/svg" width="1280" height="696" viewBox="0 0 1280 696"><rect width="100%" height="100%" fill="white"/><text x="640.0" y="48" font-size="24" font-weight="700" text-anchor="middle">Pairwise Permutation Success Rates (%)</text><text x="242.5" y="88" font-size="14" text-anchor="middle" transform="rotate(-25 242.5 88)">Null Key</text><text x="367.5" y="88" font-size="14" text-anchor="middle" transform="rotate(-25 367.5 88)">Duplicate Record</text><text x="492.5" y="88" font-size="14" text-anchor="middle" transform="rotate(-25 492.5 88)">Payment Value</text><text x="617.5" y="88" font-size="14" text-anchor="middle" transform="rotate(-25 617.5 88)">Orphan Record</text><text x="742.5" y="88" font-size="14" text-anchor="middle" transform="rotate(-25 742.5 88)">Timestamp</text><text x="867.5" y="88" font-size="14" text-anchor="middle" transform="rotate(-25 867.5 88)">Freight Outlier</text><text x="992.5" y="88" font-size="14" text-anchor="middle" transform="rotate(-25 992.5 88)">Payment Type</text><text x="1117.5" y="88" font-size="14" text-anchor="middle" transform="rotate(-25 1117.5 88)">Missing Column</text><text x="160" y="137.0" font-size="16" text-anchor="end">Null Key</text><rect x="180" y="100" width="125" height="62" fill="#c7162b" opacity="0.88" stroke="#ffffff"/><text x="242.5" y="137.0" font-size="18" text-anchor="middle">0.9</text><rect x="305" y="100" width="125" height="62" fill="#c7162b" opacity="0.88" stroke="#ffffff"/><text x="367.5" y="137.0" font-size="18" text-anchor="middle">46.5</text><rect x="430" y="100" width="125" height="62" fill="#c7162b" opacity="0.88" stroke="#ffffff"/><text x="492.5" y="137.0" font-size="18" text-anchor="middle">44.5</text><rect x="555" y="100" width="125" height="62" fill="#c7162b" opacity="0.88" stroke="#ffffff"/><text x="617.5" y="137.0" font-size="18" text-anchor="middle">44.9</text><rect x="680" y="100" width="125" height="62" fill="#c7162b" opacity="0.88" stroke="#ffffff"/><text x="742.5" y="137.0" font-size="18" text-anchor="middle">42.3</text><rect x="805" y="100" width="125" height="62" fill="#c7162b" opacity="0.88" stroke="#ffffff"/><text x="867.5" y="137.0" font-size="18" text-anchor="middle">46.7</text><rect x="930" y="100" width="125" height="62" fill="#c7162b" opacity="0.88" stroke="#ffffff"/><text x="992.5" y="137.0" font-size="18" text-anchor="middle">52.4</text><rect x="1055" y="100" width="125" height="62" fill="#c7162b" opacity="0.88" stroke="#ffffff"/><text x="1117.5" y="137.0" font-size="18" text-anchor="middle">42.6</text><text x="160" y="199.0" font-size="16" text-anchor="end">Duplicate Record</text><rect x="180" y="162" width="125" height="62" fill="#277140" opacity="0.88" stroke="#ffffff"/><text x="242.5" y="199.0" font-size="18" text-anchor="middle">44.4</text><rect x="305" y="162" width="125" height="62" fill="#0e7f43" opacity="0.88" stroke="#ffffff"/><text x="367.5" y="199.0" font-size="18" text-anchor="middle">96.0</text><rect x="430" y="162" width="125" height="62" fill="#1f7641" opacity="0.88" stroke="#ffffff"/><text x="492.5" y="199.0" font-size="18" text-anchor="middle">93.3</text><rect x="555" y="162" width="125" height="62" fill="#1b7841" opacity="0.88" stroke="#ffffff"/><text x="617.5" y="199.0" font-size="18" text-anchor="middle">95.2</text><rect x="680" y="162" width="125" height="62" fill="#237440" opacity="0.88" stroke="#ffffff"/><text x="742.5" y="199.0" font-size="18" text-anchor="middle">92.1</text><rect x="805" y="162" width="125" height="62" fill="#177a42" opacity="0.88" stroke="#ffffff"/><text x="867.5" y="199.0" font-size="18" text-anchor="middle">91.8</text><rect x="930" y="162" width="125" height="62" fill="#1c7741" opacity="0.88" stroke="#ffffff"/><text x="992.5" y="199.0" font-size="18" text-anchor="middle">92.3</text><rect x="1055" y="162" width="125" height="62" fill="#247340" opacity="0.88" stroke="#ffffff"/><text x="1117.5" y="199.0" font-size="18" text-anchor="middle">91.9</text><text x="160" y="261.0" font-size="16" text-anchor="end">Payment Value</text><rect x="180" y="224" width="125" height="62" fill="#137d42" opacity="0.88" stroke="#ffffff"/><text x="242.5" y="261.0" font-size="18" text-anchor="middle">49.9</text><rect x="305" y="224" width="125" height="62" fill="#157c42" opacity="0.88" stroke="#ffffff"/><text x="367.5" y="261.0" font-size="18" text-anchor="middle">94.2</text><rect x="430" y="224" width="125" height="62" fill="#257240" opacity="0.88" stroke="#ffffff"/><text x="492.5" y="261.0" font-size="18" text-anchor="middle">91.4</text><rect x="555" y="224" width="125" height="62" fill="#306c3e" opacity="0.88" stroke="#ffffff"/><text x="617.5" y="261.0" font-size="18" text-anchor="middle">89.0</text><rect x="680" y="224" width="125" height="62" fill="#107e43" opacity="0.88" stroke="#ffffff"/><text x="742.5" y="261.0" font-size="18" text-anchor="middle">97.8</text><rect x="805" y="224" width="125" height="62" fill="#147c42" opacity="0.88" stroke="#ffffff"/><text x="867.5" y="261.0" font-size="18" text-anchor="middle">92.6</text><rect x="930" y="224" width="125" height="62" fill="#117e43" opacity="0.88" stroke="#ffffff"/><text x="992.5" y="261.0" font-size="18" text-anchor="middle">94.9</text><rect x="1055" y="224" width="125" height="62" fill="#1a7941" opacity="0.88" stroke="#ffffff"/><text x="1117.5" y="261.0" font-size="18" text-anchor="middle">95.1</text><text x="160" y="323.0" font-size="16" text-anchor="end">Orphan Record</text><rect x="180" y="286" width="125" height="62" fill="#177a42" opacity="0.88" stroke="#ffffff"/><text x="242.5" y="323.0" font-size="18" text-anchor="middle">48.8</text><rect x="305" y="286" width="125" height="62" fill="#0b8244" opacity="0.88" stroke="#ffffff"/><text x="367.5" y="323.0" font-size="18" text-anchor="middle">97.0</text><rect x="430" y="286" width="125" height="62" fill="#217440" opacity="0.88" stroke="#ffffff"/><text x="492.5" y="323.0" font-size="18" text-anchor="middle">92.5</text><rect x="555" y="286" width="125" height="62" fill="#237340" opacity="0.88" stroke="#ffffff"/><text x="617.5" y="323.0" font-size="18" text-anchor="middle">92.9</text><rect x="680" y="286" width="125" height="62" fill="#207541" opacity="0.88" stroke="#ffffff"/><text x="742.5" y="323.0" font-size="18" text-anchor="middle">92.8</text><rect x="805" y="286" width="125" height="62" fill="#117e43" opacity="0.88" stroke="#ffffff"/><text x="867.5" y="323.0" font-size="18" text-anchor="middle">93.2</text><rect x="930" y="286" width="125" height="62" fill="#147c42" opacity="0.88" stroke="#ffffff"/><text x="992.5" y="323.0" font-size="18" text-anchor="middle">94.2</text><rect x="1055" y="286" width="125" height="62" fill="#157b42" opacity="0.88" stroke="#ffffff"/><text x="1117.5" y="323.0" font-size="18" text-anchor="middle">96.5</text><text x="160" y="385.0" font-size="16" text-anchor="end">Timestamp</text><rect x="180" y="348" width="125" height="62" fill="#1c7841" opacity="0.88" stroke="#ffffff"/><text x="242.5" y="385.0" font-size="18" text-anchor="middle">47.5</text><rect x="305" y="348" width="125" height="62" fill="#187a42" opacity="0.88" stroke="#ffffff"/><text x="367.5" y="385.0" font-size="18" text-anchor="middle">93.4</text><rect x="430" y="348" width="125" height="62" fill="#0b8244" opacity="0.88" stroke="#ffffff"/><text x="492.5" y="385.0" font-size="18" text-anchor="middle">99.2</text><rect x="555" y="348" width="125" height="62" fill="#167b42" opacity="0.88" stroke="#ffffff"/><text x="617.5" y="385.0" font-size="18" text-anchor="middle">96.7</text><rect x="680" y="348" width="125" height="62" fill="#0e8043" opacity="0.88" stroke="#ffffff"/><text x="742.5" y="385.0" font-size="18" text-anchor="middle">98.5</text><rect x="805" y="348" width="125" height="62" fill="#0b8244" opacity="0.88" stroke="#ffffff"/><text x="867.5" y="385.0" font-size="18" text-anchor="middle">94.9</text><rect x="930" y="348" width="125" height="62" fill="#157c42" opacity="0.88" stroke="#ffffff"/><text x="992.5" y="385.0" font-size="18" text-anchor="middle">94.1</text><rect x="1055" y="348" width="125" height="62" fill="#207541" opacity="0.88" stroke="#ffffff"/><text x="1117.5" y="385.0" font-size="18" text-anchor="middle">93.1</text><text x="160" y="447.0" font-size="16" text-anchor="end">Freight Outlier</text><rect x="180" y="410" width="125" height="62" fill="#1f7641" opacity="0.88" stroke="#ffffff"/><text x="242.5" y="447.0" font-size="18" text-anchor="middle">46.6</text><rect x="305" y="410" width="125" height="62" fill="#137c42" opacity="0.88" stroke="#ffffff"/><text x="367.5" y="447.0" font-size="18" text-anchor="middle">94.6</text><rect x="430" y="410" width="125" height="62" fill="#187a42" opacity="0.88" stroke="#ffffff"/><text x="492.5" y="447.0" font-size="18" text-anchor="middle">95.2</text><rect x="555" y="410" width="125" height="62" fill="#147c42" opacity="0.88" stroke="#ffffff"/><text x="617.5" y="447.0" font-size="18" text-anchor="middle">97.2</text><rect x="680" y="410" width="125" height="62" fill="#0b8244" opacity="0.88" stroke="#ffffff"/><text x="742.5" y="447.0" font-size="18" text-anchor="middle">99.4</text><rect x="805" y="410" width="125" height="62" fill="#147c42" opacity="0.88" stroke="#ffffff"/><text x="867.5" y="447.0" font-size="18" text-anchor="middle">92.4</text><rect x="930" y="410" width="125" height="62" fill="#0b8244" opacity="0.88" stroke="#ffffff"/><text x="992.5" y="447.0" font-size="18" text-anchor="middle">96.5</text><rect x="1055" y="410" width="125" height="62" fill="#187a42" opacity="0.88" stroke="#ffffff"/><text x="1117.5" y="447.0" font-size="18" text-anchor="middle">95.7</text><text x="160" y="509.0" font-size="16" text-anchor="end">Payment Type</text><rect x="180" y="472" width="125" height="62" fill="#2f6c3f" opacity="0.88" stroke="#ffffff"/><text x="242.5" y="509.0" font-size="18" text-anchor="middle">42.2</text><rect x="305" y="472" width="125" height="62" fill="#0e7f43" opacity="0.88" stroke="#ffffff"/><text x="367.5" y="509.0" font-size="18" text-anchor="middle">96.0</text><rect x="430" y="472" width="125" height="62" fill="#1d7741" opacity="0.88" stroke="#ffffff"/><text x="492.5" y="509.0" font-size="18" text-anchor="middle">93.9</text><rect x="555" y="472" width="125" height="62" fill="#0b8244" opacity="0.88" stroke="#ffffff"/><text x="617.5" y="509.0" font-size="18" text-anchor="middle">100.0</text><rect x="680" y="472" width="125" height="62" fill="#237440" opacity="0.88" stroke="#ffffff"/><text x="742.5" y="509.0" font-size="18" text-anchor="middle">92.1</text><rect x="805" y="472" width="125" height="62" fill="#177a42" opacity="0.88" stroke="#ffffff"/><text x="867.5" y="509.0" font-size="18" text-anchor="middle">91.7</text><rect x="930" y="472" width="125" height="62" fill="#147c42" opacity="0.88" stroke="#ffffff"/><text x="992.5" y="509.0" font-size="18" text-anchor="middle">94.2</text><rect x="1055" y="472" width="125" height="62" fill="#0b8244" opacity="0.88" stroke="#ffffff"/><text x="1117.5" y="509.0" font-size="18" text-anchor="middle">99.7</text><text x="160" y="571.0" font-size="16" text-anchor="end">Missing Column</text><rect x="180" y="534" width="125" height="62" fill="#0b8244" opacity="0.88" stroke="#ffffff"/><text x="242.5" y="571.0" font-size="18" text-anchor="middle">52.2</text><rect x="305" y="534" width="125" height="62" fill="#1b7841" opacity="0.88" stroke="#ffffff"/><text x="367.5" y="571.0" font-size="18" text-anchor="middle">92.4</text><rect x="430" y="534" width="125" height="62" fill="#1f7641" opacity="0.88" stroke="#ffffff"/><text x="492.5" y="571.0" font-size="18" text-anchor="middle">93.1</text><rect x="555" y="534" width="125" height="62" fill="#1c7741" opacity="0.88" stroke="#ffffff"/><text x="617.5" y="571.0" font-size="18" text-anchor="middle">94.9</text><rect x="680" y="534" width="125" height="62" fill="#1d7741" opacity="0.88" stroke="#ffffff"/><text x="742.5" y="571.0" font-size="18" text-anchor="middle">93.7</text><rect x="805" y="534" width="125" height="62" fill="#0b8143" opacity="0.88" stroke="#ffffff"/><text x="867.5" y="571.0" font-size="18" text-anchor="middle">94.7</text><rect x="930" y="534" width="125" height="62" fill="#0c8043" opacity="0.88" stroke="#ffffff"/><text x="992.5" y="571.0" font-size="18" text-anchor="middle">96.0</text><rect x="1055" y="534" width="125" height="62" fill="#1f7641" opacity="0.88" stroke="#ffffff"/><text x="1117.5" y="571.0" font-size="18" text-anchor="middle">93.4</text></svg>