<svg xmlns="http://www.w3.org/2000/svg" width="1600" height="760" viewBox="0 0 1600 760"><rect width="100%" height="100%" fill="white"/><text x="800.0" y="42" font-size="24" font-weight="700" text-anchor="middle">Processing Time Bounds</text><text x="400" y="88" font-size="18" text-anchor="middle">Simulated Resolution Latency by Error Type</text><text x="1150" y="88" font-size="18" text-anchor="middle">Actual Processing Time by Error Type</text><line x1="90" y1="170" x2="90" y2="640" stroke="#333"/><line x1="90" y1="640" x2="710" y2="640" stroke="#333"/><text x="38" y="405.0" font-size="16" text-anchor="middle" transform="rotate(-90 38 405.0)">Resolution Time (seconds)</text><line x1="840" y1="170" x2="840" y2="640" stroke="#333"/><line x1="840" y1="640" x2="1460" y2="640" stroke="#333"/><text x="788" y="405.0" font-size="16" text-anchor="middle" transform="rotate(-90 788 405.0)">Wall Clock Time (ms)</text><rect x="114" y="170.00" width="54" height="470.00" fill="#67d3cf" opacity="0.88"/><rect x="864" y="480.59" width="54" height="159.41" fill="#ff8c8c" opacity="0.88"/><text x="141.0" y="162.00" font-size="12" text-anchor="middle">34.7</text><text x="891.0" y="472.59" font-size="12" text-anchor="middle">84.44</text><line x1="891.0" y1="397.20" x2="891.0" y2="563.99" stroke="#222" stroke-width="2"/><line x1="883.0" y1="397.20" x2="899.0" y2="397.20" stroke="#222" stroke-width="2"/><line x1="883.0" y1="563.99" x2="899.0" y2="563.99" stroke="#222" stroke-width="2"/><text x="141.0" y="662" font-size="11" text-anchor="middle">Lower</text><text x="891.0" y="662" font-size="11" text-anchor="middle">Lower</text><text x="141.0" y="676" font-size="11" text-anchor="middle">Bound\n(5</text><text x="891.0" y="676" font-size="11" text-anchor="middle">Bound\n(5</text><text x="141.0" y="690" font-size="11" text-anchor="middle">rows,</text><text x="891.0" y="690" font-size="11" text-anchor="middle">rows,</text><rect x="186" y="218.69" width="54" height="421.31" fill="#67d3cf" opacity="0.88"/><rect x="936" y="312.38" width="54" height="327.62" fill="#ff8c8c" opacity="0.88"/><text x="213.0" y="210.69" font-size="12" text-anchor="middle">31.1</text><text x="963.0" y="304.38" font-size="12" text-anchor="middle">173.56</text><line x1="963.0" y1="170.00" x2="963.0" y2="454.76" stroke="#222" stroke-width="2"/><line x1="955.0" y1="170.00" x2="971.0" y2="170.00" stroke="#222" stroke-width="2"/><line x1="955.0" y1="454.76" x2="971.0" y2="454.76" stroke="#222" stroke-width="2"/><text x="213.0" y="662" font-size="11" text-anchor="middle">Primary</text><text x="963.0" y="662" font-size="11" text-anchor="middle">Primary</text><text x="213.0" y="676" font-size="11" text-anchor="middle">Study\n(random)</text><text x="963.0" y="676" font-size="11" text-anchor="middle">Study\n(random)</text><rect x="258" y="215.55" width="54" height="424.45" fill="#67d3cf" opacity="0.88"/><rect x="1008" y="327.94" width="54" height="312.06" fill="#ff8c8c" opacity="0.88"/><text x="285.0" y="207.55" font-size="12" text-anchor="middle">31.3</text><text x="1035.0" y="319.94" font-size="12" text-anchor="middle">165.31</text><line x1="1035.0" y1="170.01" x2="1035.0" y2="485.88" stroke="#222" stroke-width="2"/><line x1="1027.0" y1="170.01" x2="1043.0" y2="170.01" stroke="#222" stroke-width="2"/><line x1="1027.0" y1="485.88" x2="1043.0" y2="485.88" stroke="#222" stroke-width="2"/><text x="285.0" y="662" font-size="11" text-anchor="middle">Higher</text><text x="1035.0" y="662" font-size="11" text-anchor="middle">Higher</text><text x="285.0" y="676" font-size="11" text-anchor="middle">Bound\n(25</text><text x="1035.0" y="676" font-size="11" text-anchor="middle">Bound\n(25</text><text x="285.0" y="690" font-size="11" text-anchor="middle">rows,</text><text x="1035.0" y="690" font-size="11" text-anchor="middle">rows,</text></svg>