<svg xmlns="http://www.w3.org/2000/svg" width="980" height="760" viewBox="0 0 980 760"><rect width="100%" height="100%" fill="white"/><text x="490.0" y="42" font-size="24" font-weight="700" text-anchor="middle">State-of-the-Art Benchmark Alignment</text><polygon points="360.00,354.00 403.75,385.79 387.04,437.21 332.96,437.21 316.25,385.79" fill="none" stroke="#ddd"/><polygon points="360.00,308.00 447.50,371.57 414.08,474.43 305.92,474.43 272.50,371.57" fill="none" stroke="#ddd"/><polygon points="360.00,262.00 491.25,357.36 441.11,511.64 278.89,511.64 228.75,357.36" fill="none" stroke="#ddd"/><polygon points="360.00,216.00 534.99,343.14 468.15,548.86 251.85,548.86 185.01,343.14" fill="none" stroke="#ddd"/><polygon points="360.00,170.00 578.74,328.93 495.19,586.07 224.81,586.07 141.26,328.93" fill="none" stroke="#ddd"/><line x1="360" y1="400" x2="360.00" y2="170.00" stroke="#ccc"/><text x="360.00" y="136.00" font-size="16" text-anchor="middle">Precision</text><line x1="360" y1="400" x2="578.74" y2="328.93" stroke="#ccc"/><text x="611.08" y="318.42" font-size="16" text-anchor="middle">Recall</text><line x1="360" y1="400" x2="495.19" y2="586.07" stroke="#ccc"/><text x="515.18" y="613.58" font-size="16" text-anchor="middle">F1 Score</text><line x1="360" y1="400" x2="224.81" y2="586.07" stroke="#ccc"/><text x="204.82" y="613.58" font-size="16" text-anchor="middle">Accuracy</text><line x1="360" y1="400" x2="141.26" y2="328.93" stroke="#ccc"/><text x="108.92" y="318.42" font-size="16" text-anchor="middle">Auto-Heal %</text><polygon points="360.00,181.50 491.25,357.36 460.04,537.69 254.55,545.14 360.00,400.00" fill="#999999" fill-opacity="0.10" stroke="#999999" stroke-width="2"/><polygon points="360.00,204.50 513.12,350.25 464.10,543.28 249.14,552.58 217.82,353.80" fill="#d9534f" fill-opacity="0.10" stroke="#d9534f" stroke-width="2"/><polygon points="360.00,193.00 545.93,339.59 477.62,561.88 241.03,563.75 189.38,344.56" fill="#2e86c1" fill-opacity="0.10" stroke="#2e86c1" stroke-width="2"/><polygon points="360.00,190.70 552.49,337.45 480.32,565.61 238.33,567.47 180.63,341.72" fill="#8e44ad" fill-opacity="0.10" stroke="#8e44ad" stroke-width="2"/><polygon points="360.00,205.67 520.62,347.81 466.22,546.20 243.03,560.99 174.79,339.82" fill="#2ecc71" fill-opacity="0.10" stroke="#2ecc71" stroke-width="2"/><line x1="690" y1="120" x2="714" y2="120" stroke="#999999" stroke-width="3"/><text x="724" y="124" font-size="14">Manual Review (Human-Only)</text><line x1="690" y1="148" x2="714" y2="148" stroke="#d9534f" stroke-width="3"/><text x="724" y="152" font-size="14">Rule-Based (Static Rules Only)</text><line x1="690" y1="176" x2="714" y2="176" stroke="#2e86c1" stroke-width="3"/><text x="724" y="180" font-size="14">ML-Based (Supervised Classifier)</text><line x1="690" y1="204" x2="714" y2="204" stroke="#8e44ad" stroke-width="3"/><text x="724" y="208" font-size="14">Hybrid ML + Rules</text><line x1="690" y1="232" x2="714" y2="232" stroke="#2ecc71" stroke-width="3"/><text x="724" y="236" font-size="14">Proposed Agentic Pipeline</text></svg>